<?xml version="1.0" encoding="utf-8"?>
<!-- Generator: Adobe Illustrator 27.3.1, SVG Export Plug-In . SVG Version: 6.00 Build 0)  -->
<svg version="1.1" id="レイヤー_1" xmlns="http://www.w3.org/2000/svg" xmlns:xlink="http://www.w3.org/1999/xlink" x="0px"
	 y="0px" viewBox="0 0 107 16" style="enable-background:new 0 0 107 16;" xml:space="preserve">
<style type="text/css">
	.st0{fill-rule:evenodd;clip-rule:evenodd;fill:#B91440;}
</style>
<path id="logo" class="st0" d="M17.9,5.9C17.5,7,15,8.2,8.9,6.8l0.8,3.6c6.1,1.1,9.7,0.2,11.8-2c1.5-1.6,1.8-3.7,0.6-5.3
	c-1.3-1.7-4.3-2.9-8-2.9c-5.3,0-9.1,1.5-11.2,7.4L0,15.4h5l2.8-7.9c1.2-3.3,3.6-3.8,6.3-3.8C16.9,3.7,18.3,4.8,17.9,5.9z M67,9.3
	l-0.2-0.1c1.1-0.4,2.3-0.7,3.5-0.7c1,0,2.1,0.2,3,0.5c0.2,0.1,0.3,0.2,0.2,0.4C73.3,10.2,68.8,10.1,67,9.3L67,9.3z M76,7.5
	c-1.6-0.7-3.3-1.2-5-1.2c-3.9-0.2-8.4,1.2-9.3,4.4c-0.5,1.8,1.2,4.3,5.8,5c2.9,0.4,5.8,0.2,8.6-0.6l1-2.7c-5.3,1.8-12.3,1.3-12-1.4
	c2.6,1.7,6.3,1.5,9.1,1C79,11.1,79,9,76,7.5L76,7.5z M84.2,9.3L84,9.2c1.1-0.4,2.3-0.7,3.5-0.7c1,0,2.1,0.2,3,0.5
	c0.2,0.1,0.3,0.2,0.2,0.4C90.4,10.2,86,10.1,84.2,9.3L84.2,9.3z M93.2,7.5c-1.6-0.7-3.3-1.2-5-1.2c-3.9-0.2-8.4,1.2-9.3,4.4
	c-0.5,1.8,1.2,4.3,5.8,5c2.9,0.4,5.8,0.2,8.6-0.6l1-2.7c-5.3,1.8-12.3,1.3-12-1.4c2.6,1.7,6.3,1.5,9.1,1C96.2,11.1,96.1,9,93.2,7.5
	L93.2,7.5z M96.8,9.8l-2,5.6h4.5l1.5-4.3c0.4-1.1,0.7-1.9,2-1.9h3.2l0.9-2.6h-5.9C99.1,6.5,97.3,7.9,96.8,9.8L96.8,9.8z M20.8,15.4
	h4.7l3.2-8.7H24L20.8,15.4z M51.3,10.7c0.5-1.1,1.7-1.8,2.9-1.8c1.1,0,2.2,0.7,1.8,1.8l-1.7,4.6h4.5l1.7-4.7c0.9-2.4-1-4.5-5.3-4.5
	c-4.8,0-7.5,1.6-8.5,4.4L45,15.4h4.5L51.3,10.7z M37.3,9c1.8,0.1,3.3,1,3,2.2c-0.3,1.2-2,1.9-3.9,1.9c-1.8-0.1-3.3-1-3-2.2
	C33.7,9.7,35.4,8.9,37.3,9z M37.9,6.3c-4.7-0.2-8.9,1.8-9.5,4.4c-0.6,2.6,2.6,4.9,7.4,5.1c4.7,0.2,8.9-1.8,9.5-4.4
	C45.9,8.8,42.7,6.5,37.9,6.3L37.9,6.3z"/>
</svg>
