<svg xmlns="http://www.w3.org/2000/svg" width="141" height="72" viewBox="0 0 141 72"><g><g><g><g><path fill="#003e87" d="M67.293.02h4.791v6.49h-4.791zm0 8.287h4.791v6.388h-4.791zm0 8.186h4.791v6.39h-4.791zm0 8.187h4.791v6.39h-4.791zm0 8.287h4.791v6.39h-4.791zm-8.288-24.66h4.893v6.388h-4.893zm0 8.186h4.893v6.39h-4.893zm0 8.187h4.893v6.39h-4.893zm0 8.287h4.893v6.39h-4.893zM50.72 16.493h4.892v6.39H50.72zm0 8.187h4.892v6.39H50.72zm0 8.287h4.892v6.39H50.72zm24.76-24.66h4.892v6.388H75.48zm0 8.186h4.892v6.39H75.48zm0 8.187h4.892v6.39H75.48zm0 8.287h4.892v6.39H75.48zm8.286-16.474h4.892v6.39h-4.892zm0 8.187h4.892v6.39h-4.892zm0 8.287h4.892v6.39h-4.892z"/></g><g><path fill="#003e87" d="M0 70.505v-4.69a10.243 10.243 0 0 0 4.194 3.192c1.797.8 3.694 1.1 5.79 1.1 2.197 0 3.993-.401 5.292-1.397 1.397-1 1.996-2.197 1.996-3.695 0-1.198-.4-2.296-1.297-3.195-.9-.9-2.496-1.797-4.594-2.695-.198 0-.399-.1-.799-.301-6.19-2.594-9.384-5.29-9.384-7.987 0-2.096 1.099-3.794 3.195-5.091 2.196-1.297 4.993-1.996 8.386-1.996 1.098 0 2.296 0 3.694.099 1.298 0 1.997.1 2.196.1H21.167v4.393c-.701-.898-1.699-1.498-2.996-1.997-1.199-.498-2.696-.7-4.393-.7-2.296 0-4.093.4-5.491 1.1-1.298.798-1.997 1.896-1.997 3.194 0 1.898 2.496 3.894 7.388 5.89.2.1.3.1.3.1 3.095 1.298 5.291 2.497 6.588 3.695 1.398 1.296 1.997 2.595 1.997 4.193 0 2.295-1.198 4.193-3.694 5.889-2.396 1.497-5.39 2.297-8.985 2.297-1.397 0-2.995-.2-4.592-.4-1.598-.3-3.395-.697-5.292-1.098"/></g><g><path fill="#003e87" d="M29.752 59.624c.6-.1 1.198-.3 1.897-.699.799-.4 1.696-.997 2.794-1.896 2.696-2.197 4.393-3.694 5.292-4.593.9-.898 1.298-1.598 1.298-2.097v-.2-.298l-.1-.101h5.99c-.998.4-2.595 1.498-4.99 3.295-2.298 1.797-4.992 3.994-8.188 6.59l7.288 7.786c.2.1.4.4.6.7 1.696 1.696 2.994 2.795 3.993 3.394h-4.493c-.4 0-.799-.1-1.099-.201a3.069 3.069 0 0 1-.698-.498l-8.685-10.084h-.9v2.395c0 3.296.1 5.492.201 6.49.199.899.499 1.498.898 1.898h-6.19c.5-.4.799-1 .9-2.196.198-1.199.298-3.795.298-7.688v-1.399c0-4.292-.1-7.087-.299-8.286-.1-1.098-.4-1.897-.899-2.196h6.19c-.4.299-.7.998-.898 1.997-.1.899-.2 3.095-.2 6.389v1.498"/></g><g><path fill="#003e87" d="M52.717 71.505c.399-.599.698-1.098.897-1.996.2-.9.3-1.898.3-3.096 0-2.095-.4-4.093-1.197-5.99-.8-1.897-2.197-4.093-4.295-6.69-.799-.899-1.497-1.697-2.196-2.395-.8-.799-1.397-1.299-1.996-1.598h3.893c.998 0 1.698.101 2.196.4.5.299.998.799 1.599 1.697.897 1.298 1.696 2.696 2.495 4.093.799 1.498 1.598 3.196 2.496 5.091l4.093-5.29.3-.4c1.597-2.097 2.296-3.494 2.296-4.192 0-.301 0-.501-.199-.7-.1-.3-.301-.5-.6-.699h6.091a183.72 183.72 0 0 0-5.591 6.09c-1.498 1.698-2.596 2.995-3.295 3.894a10.351 10.351 0 0 0-1.498 3.195c-.299 1.098-.499 2.896-.499 5.191 0 .6.1 1.299.2 1.797.2.599.4 1.099.798 1.598h-6.288"/></g><g><path fill="#003e87" d="M68.39 49.74h5.79c-.4.299-.697 1.098-.799 2.296-.2 1.198-.3 3.695-.3 7.588v1.397c0 2.497.1 4.493.1 6.192.101 1.596.2 2.594.302 3.094h2.295c2.297 0 4.094-.1 5.292-.5 1.196-.398 2.197-.998 2.993-1.896l-.997 3.393c-.6 0-1.198.1-1.996.201H68.39c.4-.4.698-1 .798-2.196.2-1.199.3-3.795.3-7.688v-1.399c0-4.292-.1-7.087-.3-8.286-.1-1.098-.399-1.897-.798-2.196"/></g><g><path fill="#003e87" d="M86.06 71.505c.4-.4.698-1 .897-2.196.1-1.199.201-3.795.201-7.688v-1.399c0-4.292-.1-7.087-.201-8.286-.199-1.098-.498-1.897-.897-2.196h6.19c-.4.299-.7.998-.9 2.196-.198 1.099-.198 3.595-.198 7.389v2.596c0 3.794 0 6.29.198 7.388.2 1.197.5 1.796.9 2.196h-6.19"/></g><g><path fill="#003e87" d="M98.844 52.336l.1 10.981c0 2.597.2 4.493.4 5.69.199 1.1.598 1.9 1.098 2.498H95.25c.599-.599.999-1.798 1.297-3.894.2-1.997.301-5.092.301-8.985 0-3.495-.1-5.792-.301-6.789-.298-1.1-.698-1.798-1.297-2.097h4.692c.799 0 1.696.6 2.797 1.798.198.3.498.498.598.698.899.899 2.196 2.397 3.893 4.493 4.093 4.693 7.388 8.385 9.885 10.982l.099-9.585c0-3.096-.099-5.091-.299-6.19-.2-1.098-.499-1.797-.898-2.196h4.293c-.5.299-.8 1.098-.999 2.496-.1 1.298-.2 3.995-.2 8.187v11.18h-2.895c-.998-1.097-3.495-3.892-7.488-8.286-3.893-4.291-7.188-7.986-9.884-10.981"/></g><g><path fill="#003e87" d="M123.1 71.504c.4-.4.699-1 .897-2.196.201-1.2.201-3.795.201-7.689v-1.398c0-4.293 0-7.087-.201-8.286-.198-1.098-.498-1.897-.897-2.196h2.795c1.898 0 4.095 0 6.59-.099h6.09l.298 3.193c-.298-.699-.997-1.197-2.095-1.397-1-.298-2.996-.498-5.891-.498h-2.497c-.098.498-.198 1.296-.298 2.396 0 1.097-.1 2.694-.1 4.79v1.1c.398.1.798.1 1.298.1h2.196c1.698 0 3.194 0 4.292-.1 1.198 0 2.299-.1 3.196-.3-.799.798-1.897 1.297-3.196 1.597-1.297.3-3.493.399-6.588.399h-1.198v2.196c0 2.098.1 3.694.1 4.793.1 1.097.2 1.896.298 2.397h2.597c2.896 0 5.092-.2 6.49-.5 1.497-.399 2.595-.998 3.393-1.897l-.697 3.394c-.6 0-1.3.1-1.998.2H123.1"/></g><g><path fill="#86aee4" d="M72.084 29.07v1.997h-4.791V29.07c.799 0 1.598-.1 2.495-.1.7 0 1.498.1 2.296.1zm3.395.1c1.697.1 3.295.2 4.893.4v1.497H75.48zm8.287.8c1.696.198 3.294.498 4.892.798v.3h-4.892zm-33.046.798c1.597-.3 3.194-.6 4.892-.799v1.098H50.72zm8.285-1.199c1.599-.2 3.296-.298 4.893-.399v1.897h-4.893zm8.288 3.395h4.791v6.39h-4.791zm-8.288 0h4.893v6.39h-4.893zm-8.285 0h4.892v6.39H50.72zm24.76 0h4.892v6.39H75.48zm8.286 0h4.892v6.39h-4.892z"/></g></g></g></g></svg>